<svg width="186" height="179" viewBox="0 0 186 179" fill="none" xmlns="http://www.w3.org/2000/svg">
<path d="M61.6789 134.127L51.2349 137C-34.7267 48.4504 9.4592 -22.0758 78.8177 9.79153C10.2626 -10.0602 -15.9812 60.9884 61.6789 134.127Z" fill="#17A2B8"/>
<path d="M75.1425 126.058L67.9967 130C-5.84359 65.3464 16.1233 -10.6085 82.8177 16.7248C15.3293 -5.08924 15.3293 76.9105 75.1425 126.058Z" fill="#17A2B8"/>
<path d="M124.728 42.8947L135.033 40C219.848 129.206 176.251 200.254 107.818 168.151C175.459 188.15 201.353 116.575 124.728 42.8947Z" fill="#17A2B8"/>
<path d="M110.493 51.9423L117.639 48C191.479 112.654 169.512 188.608 102.818 161.275C170.306 183.089 170.306 101.09 110.493 51.9423Z" fill="#17A2B8"/>
<path d="M136.197 110.324L140.046 120.27C58.2323 212.423 -17.0945 175.692 8.88138 104.966C-5.01286 173.805 69.2233 192.948 136.197 110.324Z" fill="#FD8230"/>
<path d="M126.485 97.4769L131.101 104.186C72.8451 183.116 -5.52029 168.307 15.8689 99.8455C0.100834 168.59 82.5376 161.119 126.485 97.4769Z" fill="#FD8230"/>
<path d="M49.8063 68.0008L46.0106 58.0342C128.316 -33.6873 203.445 3.43868 177.091 74.0268C191.354 5.26201 117.221 -14.2705 49.8063 68.0008Z" fill="#FD8230"/>
<path d="M59.449 80.8986L54.8692 74.1652C113.546 -4.45809 191.832 10.7622 170.077 79.1108C186.212 10.4501 103.737 17.4877 59.449 80.8986Z" fill="#FD8230"/>
</svg>
