<svg width="758" height="179" viewBox="0 0 758 179" fill="none" xmlns="http://www.w3.org/2000/svg">
<path d="M262.459 124.69V99.3778H311.768V173.589C305.117 174.868 297.442 175.891 288.744 176.658C280.174 177.553 272.628 178 266.104 178C249.092 178 236.493 176.274 228.307 172.822C220.12 169.243 214.492 162.851 211.422 153.646C208.353 144.314 206.818 129.932 206.818 110.5C206.818 92.3466 208.353 78.6037 211.422 69.2713C214.62 59.8111 220.376 53.0994 228.69 49.1364C237.005 45.0455 249.412 43 265.912 43C275.378 43 284.779 43.5753 294.117 44.7259C303.454 45.8764 309.146 46.7713 311.193 47.4105V72.723C296.867 70.9332 285.866 70.0384 278.192 70.0384C265.529 70.0384 256.831 70.7415 252.098 72.1477C247.493 73.4261 244.423 76.6861 242.888 81.9276C241.353 87.169 240.586 96.6932 240.586 110.5C240.586 123.028 241.162 132.041 242.313 137.538C243.464 142.908 245.83 146.615 249.412 148.661C253.121 150.706 259.133 151.729 267.447 151.729C272.052 151.729 276.465 151.537 280.686 151.153V124.69H262.459Z" fill="#17A2B8"/>
<path d="M338.619 44.5341H385.242C404.684 44.5341 418.563 46.5156 426.877 50.4787C435.191 54.3139 440.371 60.4503 442.418 68.8878C444.465 77.1974 445.488 91.0682 445.488 110.5C445.488 129.932 444.465 143.866 442.418 152.304C440.371 160.614 435.191 166.75 426.877 170.713C418.563 174.548 404.684 176.466 385.242 176.466H338.619V44.5341ZM384.475 149.428C394.324 149.428 400.847 148.852 404.045 147.702C407.371 146.423 409.417 143.483 410.185 138.881C411.08 134.151 411.528 124.69 411.528 110.5C411.528 96.4375 411.08 87.0412 410.185 82.3111C409.289 77.581 407.179 74.6406 403.853 73.4901C400.655 72.2116 394.196 71.5724 384.475 71.5724H371.812V149.428H384.475Z" fill="#17A2B8"/>
<path d="M518.314 178C499.639 178 483.075 176.913 468.621 174.74V148.661C484.226 150.195 497.401 150.962 508.145 150.962C514.413 150.962 519.21 150.706 522.535 150.195C525.861 149.683 528.227 148.852 529.634 147.702C530.913 146.679 531.681 145.464 531.937 144.058C532.321 142.524 532.512 140.415 532.512 137.73C532.512 134.534 532.257 132.233 531.745 130.827C531.233 129.42 530.21 128.462 528.675 127.95C527.14 127.311 524.454 126.736 520.617 126.224L496.25 123.156C487.552 122.134 480.901 119.96 476.296 116.636C471.819 113.185 468.749 108.774 467.086 103.405C465.551 98.0355 464.784 91.3239 464.784 83.2699C464.784 71.892 466.894 63.2628 471.115 57.3821C475.336 51.5014 480.965 47.6662 488 45.8764C495.163 43.9588 504.244 43 515.244 43C523.303 43 530.658 43.3196 537.309 43.9588C544.088 44.598 551.443 45.6207 559.374 47.027V72.5312C544.152 70.8693 531.681 70.0384 521.96 70.0384C511.727 70.0384 505.076 70.8054 502.006 72.3395C500.343 73.1065 499.256 74.1932 498.744 75.5994C498.36 77.0057 498.168 78.9872 498.168 81.544C498.168 84.7401 498.36 87.0412 498.744 88.4474C499.256 89.7258 500.215 90.6847 501.622 91.3239C503.157 91.8352 505.779 92.3466 509.488 92.858L537.501 96.3097C543.129 96.9489 547.734 98.0994 551.315 99.7614C555.025 101.423 558.094 104.236 560.525 108.199C564.234 113.696 566.089 122.453 566.089 134.47C566.089 146.999 564.106 156.459 560.141 162.851C556.176 169.115 550.868 173.206 544.216 175.124C537.565 177.041 528.931 178 518.314 178Z" fill="#17A2B8"/>
<path d="M676.818 174.74C672.469 175.635 666.969 176.402 660.317 177.041C653.794 177.68 647.654 178 641.898 178C625.27 178 612.99 175.955 605.06 171.864C597.13 167.773 591.885 161.125 589.327 151.92C586.769 142.716 585.49 128.909 585.49 110.5C585.49 92.3466 586.769 78.6676 589.327 69.4631C592.013 60.2585 597.321 53.5469 605.252 49.3281C613.182 45.1094 625.398 43 641.898 43C647.654 43 653.73 43.3835 660.125 44.1506C666.521 44.7898 671.829 45.6207 676.05 46.6435V71.956C663.003 70.6776 654.369 70.0384 650.148 70.0384C639.66 70.0384 632.433 70.8693 628.468 72.5312C624.502 74.0653 621.944 77.3892 620.793 82.5028C619.77 87.4886 619.258 96.821 619.258 110.5C619.258 124.179 619.77 133.575 620.793 138.689C621.944 143.675 624.502 146.999 628.468 148.661C632.433 150.195 639.66 150.962 650.148 150.962C659.614 150.962 668.504 150.322 676.818 149.044V174.74Z" fill="#17A2B8"/>
<path d="M718.445 67.7069H757.818V84H698.818V72.8276C698.818 66.1552 699.053 61.1121 699.523 57.6983C700.071 54.2845 701.247 51.4138 703.049 49.0862C704.929 46.7586 707.907 44.7414 711.981 43.0345L729.728 35.9353C732.079 35.0043 733.763 34.1897 734.782 33.4914C735.8 32.7931 736.466 31.9784 736.78 31.0474C737.172 30.0388 737.367 28.5259 737.367 26.5086C737.367 24.2586 736.976 22.6293 736.192 21.6207C735.409 20.5345 734.077 19.8362 732.196 19.5259C730.316 19.2155 727.377 19.0603 723.381 19.0603C717.348 19.0603 709.709 19.6422 700.463 20.806V5.67672C704.302 4.90086 708.886 4.28017 714.214 3.81466C719.62 3.27155 724.517 3 728.905 3C735.017 3 740.11 3.5431 744.184 4.62931C748.259 5.63793 751.549 7.81034 754.057 11.1466C756.564 14.4052 757.818 19.1379 757.818 25.3448C757.818 32.4052 756.721 37.681 754.527 41.1724C752.333 44.5862 748.925 47.1853 744.302 48.9698L734.664 52.694L724.204 56.7672C721.853 57.6207 720.326 58.5517 719.62 59.5603C719.15 60.2586 718.837 61.1121 718.68 62.1207C718.523 63.0517 718.445 64.3319 718.445 65.9612V67.7069Z" fill="#FD8230"/>
<path d="M61.6789 134.127L51.2349 137C-34.7267 48.4504 9.4592 -22.0758 78.8177 9.79153C10.2626 -10.0602 -15.9812 60.9884 61.6789 134.127Z" fill="#17A2B8"/>
<path d="M75.1425 126.058L67.9967 130C-5.84359 65.3464 16.1233 -10.6085 82.8177 16.7248C15.3293 -5.08924 15.3293 76.9105 75.1425 126.058Z" fill="#17A2B8"/>
<path d="M124.728 42.8947L135.033 40C219.848 129.206 176.251 200.254 107.818 168.151C175.459 188.15 201.353 116.575 124.728 42.8947Z" fill="#17A2B8"/>
<path d="M110.493 51.9423L117.639 48C191.479 112.654 169.512 188.608 102.818 161.275C170.306 183.089 170.306 101.09 110.493 51.9423Z" fill="#17A2B8"/>
<path d="M136.197 110.324L140.046 120.27C58.2323 212.423 -17.0945 175.692 8.88138 104.966C-5.01286 173.805 69.2233 192.948 136.197 110.324Z" fill="#FD8230"/>
<path d="M126.485 97.4769L131.101 104.186C72.8451 183.116 -5.52029 168.307 15.8689 99.8455C0.100834 168.59 82.5376 161.119 126.485 97.4769Z" fill="#FD8230"/>
<path d="M49.8063 68.0008L46.0106 58.0342C128.316 -33.6873 203.445 3.43868 177.091 74.0268C191.354 5.26201 117.221 -14.2705 49.8063 68.0008Z" fill="#FD8230"/>
<path d="M59.449 80.8986L54.8692 74.1652C113.546 -4.45809 191.832 10.7622 170.077 79.1108C186.212 10.4501 103.737 17.4877 59.449 80.8986Z" fill="#FD8230"/>
</svg>
